# xmcd
#
# Track frame offsets:
#	150
#	11961
#	21810
#	36619
#	57249
#	73304
#	88470
#	100308
#	113417
#	129037
#	139043
#	155351
#	171647
#	187203
#	203521
#
# Disc length: 2892 seconds
#
# Revision: 1
# Processed by: cddbd v1.5.2PL0 Copyright (c) Steve Scherf et al.
# Submitted via: audiograbber 1.83.01
#
DISCID=db0b4a0f
DTITLE=Artists Carousel - Artists Carousel 003
DYEAR=1900
DGENRE=
TTITLE0=It´s Time I Change My Name To Hank - Ken Wentworth
TTITLE1=I Know About That  - Judy Kanyo
TTITLE2=More Miles To Go  - Nelson and The Stagecoach
TTITLE3=I´d Like To Thank Someone - Aage Oogee Nordheim
TTITLE4=China Nights  - Everard Dodge
TTITLE5=Don´t Be Afraid To Dream - Florita
TTITLE6=You Make The Hard Times Easier - Stivie And Debbie Cee
TTITLE7=Not Tough Enough  - Stevie Cee
TTITLE8=Push The Pen  - Wendell Austin
TTITLE9=When You´re Smiling  - Al Hawkes
TTITLE10=That´s The Way Chrilder Are  - Vance Tripp
TTITLE11=Men Just Don´t Cry  - Bob Lindsey
TTITLE12=Goodbye Time  - Jim Russ
TTITLE13=The Softest Place  - Sandi Wardwell
TTITLE14=A Few Good Men  - Sandi Wardwell
EXTD=
EXTT0=
EXTT1=
EXTT2=
EXTT3=
EXTT4=
EXTT5=
EXTT6=
EXTT7=
EXTT8=
EXTT9=
EXTT10=
EXTT11=
EXTT12=
EXTT13=
EXTT14=
PLAYORDER=
